<svg width="24" height="28" viewBox="0 0 24 28" fill="none" xmlns="http://www.w3.org/2000/svg">
<path d="M23.2497 23.6169L21.2465 20.2779C20.3214 18.7367 19.8325 16.9715 19.8325 15.1749V12.25C19.8325 8.5575 17.3685 5.43435 13.9992 4.4275V2.33335C13.9992 1.0465 12.9527 0 11.6658 0C10.379 0 9.33247 1.0465 9.33247 2.33335V4.4275C5.96317 5.43435 3.49917 8.5575 3.49917 12.25V15.1749C3.49917 16.9715 3.01032 18.7355 2.08632 20.2767L0.0831704 23.6157C-0.0253296 23.7966 -0.0276811 24.0206 0.0761704 24.2037C0.180022 24.3869 0.372522 24.5001 0.582522 24.5001H22.7492C22.9592 24.5001 23.1528 24.3869 23.2567 24.2049C23.3605 24.0229 23.357 23.7965 23.2497 23.6169Z" fill="#B3BACA"/>
<path d="M7.99219 25.6667C8.65019 27.041 10.0432 28 11.666 28C13.2888 28 14.6818 27.041 15.3398 25.6667H7.99219V25.6667Z" fill="#B3BACA"/>
</svg>
