<svg width="42" height="60" viewBox="0 0 42 60" fill="none" xmlns="http://www.w3.org/2000/svg">
<path fill-rule="evenodd" clip-rule="evenodd" d="M24.3906 22.5003L29.3214 3.22495C29.3943 2.98831 29.4321 2.73653 29.4321 2.47512C29.4321 1.11305 28.3536 0 27.016 0C26.2574 0 25.5812 0.349461 25.1398 0.913552L0.526417 33.4492C0.195719 33.8743 0 34.4123 0 34.9998C0 36.3742 1.10413 37.4997 2.45256 37.4997H17.3029L12.3735 56.7751C12.2993 57.0131 12.2628 57.2635 12.2628 57.5249C12.2628 58.8883 13.3426 60 14.6789 60C15.4389 60 16.1138 59.6505 16.5551 59.0864L41.1671 26.5494C41.4992 26.1243 41.6949 25.5877 41.6949 24.9989C41.6949 23.6244 40.5908 22.499 39.2424 22.499L24.3906 22.5003Z" fill="white"/>
</svg>
