<svg width="18" height="15" viewBox="0 0 18 15" fill="none" xmlns="http://www.w3.org/2000/svg">
<path d="M17.7124 6.78805L11.212 0.287415C11.0264 0.101854 10.7791 0 10.5154 0C10.2514 0 10.0042 0.102 9.81863 0.287415L9.22844 0.877756C9.04303 1.06302 8.94088 1.31049 8.94088 1.57434C8.94088 1.83805 9.04303 2.09385 9.22844 2.27912L13.0207 6.07976H0.972439C0.42922 6.07976 0 6.50502 0 7.04839V7.88298C0 8.42634 0.42922 8.89449 0.972439 8.89449H13.0638L9.22859 12.7163C9.04317 12.9019 8.94102 13.1426 8.94102 13.4065C8.94102 13.67 9.04317 13.9143 9.22859 14.0997L9.81878 14.6881C10.0043 14.8737 10.2515 14.9748 10.5155 14.9748C10.7792 14.9748 11.0265 14.8724 11.2121 14.6868L17.7126 8.18634C17.8986 8.00019 18.0009 7.75171 18.0001 7.48756C18.0007 7.22254 17.8986 6.9739 17.7124 6.78805Z" fill="#FFE000"/>
</svg>
