<svg width="60" height="60" viewBox="0 0 60 60" fill="none" xmlns="http://www.w3.org/2000/svg">
<path d="M34.687 22.5C37.2745 22.5 39.3745 20.4 39.3745 17.8125V15.9375C39.3745 13.35 37.2745 11.25 34.687 11.25C32.0995 11.25 29.9995 13.35 29.9995 15.9375V17.8125C29.9995 20.4 32.0995 22.5 34.687 22.5Z" fill="white"/>
<path d="M36.562 24.375H32.812C28.1526 24.3844 24.3839 28.1531 24.3745 32.8125V40.3125C24.3745 42.5438 25.9401 44.4563 28.1245 44.9063V59.0625C28.1245 59.5781 28.5464 60 29.062 60H40.312C40.8276 60 41.2495 59.5781 41.2495 59.0625V44.9063C43.4339 44.4563 44.9995 42.5438 44.9995 40.3125V32.8125C44.9901 28.1531 41.2214 24.3844 36.562 24.375Z" fill="white"/>
<path d="M33.7495 4.6875V6.5625C33.7495 9.15 31.6495 11.25 29.062 11.25C26.4745 11.25 24.3745 9.15 24.3745 6.5625V4.6875C24.3745 2.1 26.4745 0 29.062 0C31.6495 0 33.7495 2.1 33.7495 4.6875Z" fill="white"/>
<path d="M44.9995 4.6875V6.5625C44.9995 9.15 42.8995 11.25 40.312 11.25C37.7245 11.25 35.6245 9.15 35.6245 6.5625V4.6875C35.6245 2.1 37.7245 0 40.312 0C42.8995 0 44.9995 2.1 44.9995 4.6875Z" fill="white"/>
<path d="M19.687 18.75C22.2745 18.75 24.3745 16.65 24.3745 14.0625V12.1875C24.3745 9.6 22.2745 7.5 19.687 7.5C17.0995 7.5 14.9995 9.6 14.9995 12.1875V14.0625C14.9995 16.65 17.0995 18.75 19.687 18.75Z" fill="white"/>
<path d="M26.2495 46.2375V50.775L18.4495 35.1656C16.9776 32.2219 13.4058 31.0312 10.462 32.5031C10.0776 32.7 9.71201 32.9344 9.37451 33.2062V29.0625C9.38389 24.4031 13.1526 20.6344 17.812 20.625H21.562C24.0651 20.625 26.4464 21.7406 28.0401 23.6719C24.637 25.4531 22.4995 28.9688 22.4995 32.8125V40.3125C22.5089 42.8437 23.962 45.15 26.2495 46.2375Z" fill="white"/>
<path d="M49.687 18.75C47.0995 18.75 44.9995 16.65 44.9995 14.0625V12.1875C44.9995 9.6 47.0995 7.5 49.687 7.5C52.2745 7.5 54.3745 9.6 54.3745 12.1875V14.0625C54.3745 16.65 52.2745 18.75 49.687 18.75Z" fill="white"/>
<path d="M43.1241 46.2375V55.3125C43.1241 55.8281 43.546 56.25 44.0616 56.25H55.3116C55.8272 56.25 56.2491 55.8281 56.2491 55.3125V41.1563C58.4241 40.7063 59.9897 38.7844 59.9991 36.5625V29.0625C59.9897 24.4031 56.221 20.6344 51.5616 20.625H47.8116C45.3085 20.625 42.9272 21.7406 41.3335 23.6719C44.7366 25.4531 46.8741 28.9688 46.8741 32.8125V40.3125C46.8647 42.8438 45.4116 45.15 43.1241 46.2375Z" fill="white"/>
<path d="M25.8184 54.1031L16.7715 36C15.759 33.9844 13.3027 33.1687 11.2965 34.1812C10.509 34.575 9.87148 35.2125 9.47773 36L0.430855 54.1031C-0.57227 56.1187 0.23398 58.5656 2.2496 59.5687C2.82148 59.85 3.44023 60 4.07773 60H22.1715C24.4215 60 26.2496 58.1812 26.2496 55.9312C26.2496 55.2937 26.0996 54.675 25.8184 54.1031ZM14.1184 56.3062C13.9871 56.4375 13.8277 56.5406 13.659 56.6156C13.3121 56.7562 12.9371 56.7562 12.5902 56.6156C12.0652 56.4 11.7184 55.8844 11.7184 55.3125C11.7184 55.2187 11.7277 55.1344 11.7465 55.0406C11.7652 54.9469 11.7934 54.8625 11.8309 54.7781C11.859 54.6937 11.9059 54.6094 11.9527 54.5344C12.009 54.4594 12.0652 54.3844 12.1309 54.3187C12.1965 54.2531 12.2715 54.1969 12.3465 54.1406C12.4215 54.0937 12.5059 54.0469 12.5902 54.0094C12.6746 53.9812 12.7684 53.9531 12.8527 53.9344C13.0309 53.8969 13.2184 53.8969 13.3965 53.9344C13.4809 53.9531 13.5746 53.9812 13.659 54.0094C13.7434 54.0469 13.8277 54.0937 13.9027 54.1406C13.9777 54.1969 14.0527 54.2531 14.1184 54.3187C14.184 54.3844 14.2402 54.4594 14.2965 54.5344C14.3434 54.6094 14.3902 54.6937 14.4184 54.7781C14.4559 54.8625 14.484 54.9469 14.5027 55.0406C14.5215 55.1344 14.5309 55.2187 14.5309 55.3125C14.5309 55.6875 14.3809 56.0437 14.1184 56.3062ZM14.5309 51.5625C14.5309 52.3406 13.9027 52.9687 13.1246 52.9687C12.3465 52.9687 11.7184 52.3406 11.7184 51.5625V42.1875C11.7184 41.4094 12.3465 40.7812 13.1246 40.7812C13.9027 40.7812 14.5309 41.4094 14.5309 42.1875V51.5625Z" fill="white"/>
</svg>
