<svg width="28" height="28" viewBox="0 0 28 28" fill="none" xmlns="http://www.w3.org/2000/svg">
<path d="M10.7916 0H2.0416C0.915802 0 0 0.915802 0 2.0416V7.2916C0 8.4176 0.915802 9.3334 2.0416 9.3334H10.7916C11.9176 9.3334 12.8334 8.4176 12.8334 7.2916V2.0416C12.8334 0.915802 11.9176 0 10.7916 0Z" fill="#B3BACA"/>
<path d="M10.7916 11.6666H2.0416C0.915802 11.6666 0 12.5824 0 13.7084V25.9584C0 27.0842 0.915802 28 2.0416 28H10.7916C11.9176 28 12.8334 27.0842 12.8334 25.9584V13.7084C12.8334 12.5824 11.9176 11.6666 10.7916 11.6666Z" fill="#B3BACA"/>
<path d="M25.9583 18.6666H17.2083C16.0823 18.6666 15.1665 19.5824 15.1665 20.7084V25.9584C15.1665 27.0842 16.0823 28 17.2083 28H25.9583C27.0841 28 27.9999 27.0842 27.9999 25.9584V20.7084C27.9999 19.5824 27.0841 18.6666 25.9583 18.6666Z" fill="#B3BACA"/>
<path d="M25.9583 0H17.2083C16.0823 0 15.1665 0.915802 15.1665 2.0416V14.2916C15.1665 15.4176 16.0823 16.3334 17.2083 16.3334H25.9583C27.0841 16.3334 27.9999 15.4176 27.9999 14.2916V2.0416C27.9999 0.915802 27.0841 0 25.9583 0V0Z" fill="#B3BACA"/>
</svg>
