<svg width="36" height="29" viewBox="0 0 36 29" fill="none" xmlns="http://www.w3.org/2000/svg">
<path d="M7.71429 25.0455C7.71429 26.1439 7.33922 27.0777 6.58929 27.8466C5.83935 28.6155 4.9285 29 3.85714 29C2.78578 29 1.87493 28.6155 1.125 27.8466C0.375067 27.0777 0 26.1439 0 25.0455C0 23.947 0.375067 23.0132 1.125 22.2443C1.87493 21.4754 2.78578 21.0909 3.85714 21.0909C4.9285 21.0909 5.83935 21.4754 6.58929 22.2443C7.33922 23.0132 7.71429 23.947 7.71429 25.0455ZM7.71429 14.5C7.71429 15.5984 7.33922 16.5323 6.58929 17.3011C5.83935 18.07 4.9285 18.4545 3.85714 18.4545C2.78578 18.4545 1.87493 18.07 1.125 17.3011C0.375067 16.5323 0 15.5984 0 14.5C0 13.4016 0.375067 12.4677 1.125 11.6989C1.87493 10.93 2.78578 10.5455 3.85714 10.5455C4.9285 10.5455 5.83935 10.93 6.58929 11.6989C7.33922 12.4677 7.71429 13.4016 7.71429 14.5ZM36 23.0682V27.0227C36 27.2013 35.9363 27.3558 35.8092 27.4862C35.682 27.6165 35.5313 27.6818 35.3571 27.6818H10.9286C10.7544 27.6818 10.6037 27.6165 10.4766 27.4862C10.3494 27.3558 10.2857 27.2013 10.2857 27.0227V23.0682C10.2857 22.8896 10.3494 22.7351 10.4766 22.6048C10.6037 22.4744 10.7544 22.4091 10.9286 22.4091H35.3571C35.5313 22.4091 35.682 22.4744 35.8092 22.6048C35.9363 22.7351 36 22.8896 36 23.0682ZM7.71429 3.95455C7.71429 5.05296 7.33922 5.98681 6.58929 6.75568C5.83935 7.52455 4.9285 7.90909 3.85714 7.90909C2.78578 7.90909 1.87493 7.52455 1.125 6.75568C0.375067 5.98681 0 5.05296 0 3.95455C0 2.85613 0.375067 1.92228 1.125 1.15341C1.87493 0.384538 2.78578 0 3.85714 0C4.9285 0 5.83935 0.384538 6.58929 1.15341C7.33922 1.92228 7.71429 2.85613 7.71429 3.95455ZM36 12.5227V16.4773C36 16.6558 35.9363 16.8103 35.8092 16.9407C35.682 17.0711 35.5313 17.1364 35.3571 17.1364H10.9286C10.7544 17.1364 10.6037 17.0711 10.4766 16.9407C10.3494 16.8103 10.2857 16.6558 10.2857 16.4773V12.5227C10.2857 12.3442 10.3494 12.1897 10.4766 12.0593C10.6037 11.9289 10.7544 11.8636 10.9286 11.8636H35.3571C35.5313 11.8636 35.682 11.9289 35.8092 12.0593C35.9363 12.1897 36 12.3442 36 12.5227ZM36 1.97727V5.93182C36 6.11039 35.9363 6.26487 35.8092 6.39524C35.682 6.52562 35.5313 6.59091 35.3571 6.59091H10.9286C10.7544 6.59091 10.6037 6.52562 10.4766 6.39524C10.3494 6.26487 10.2857 6.11039 10.2857 5.93182V1.97727C10.2857 1.7987 10.3494 1.64423 10.4766 1.51385C10.6037 1.38347 10.7544 1.31818 10.9286 1.31818H35.3571C35.5313 1.31818 35.682 1.38347 35.8092 1.51385C35.9363 1.64423 36 1.7987 36 1.97727Z" fill="#B3BACA"/>
</svg>
