<svg width="30" height="31" viewBox="0 0 30 31" fill="none" xmlns="http://www.w3.org/2000/svg">
<path d="M10.0625 2.8125H30" stroke="#B3BACA" stroke-width="2" stroke-linejoin="round"/>
<path d="M10.0625 6.4375H19.125" stroke="#B3BACA" stroke-width="2" stroke-linejoin="round"/>
<path d="M10.0625 13.6875H30" stroke="#B3BACA" stroke-width="2" stroke-linejoin="round"/>
<path d="M10.0625 17.3125H19.125" stroke="#B3BACA" stroke-width="2" stroke-linejoin="round"/>
<path d="M10.0625 24.5625H30" stroke="#B3BACA" stroke-width="2" stroke-linejoin="round"/>
<path d="M10.0625 28.1875H19.125" stroke="#B3BACA" stroke-width="2" stroke-linejoin="round"/>
<path d="M4.625 7.34375C6.12652 7.34375 7.34375 6.12652 7.34375 4.625C7.34375 3.12348 6.12652 1.90625 4.625 1.90625C3.12348 1.90625 1.90625 3.12348 1.90625 4.625C1.90625 6.12652 3.12348 7.34375 4.625 7.34375Z" stroke="#B3BACA" stroke-width="2" stroke-linejoin="round"/>
<path d="M4.625 18.2188C6.12652 18.2188 7.34375 17.0015 7.34375 15.5C7.34375 13.9985 6.12652 12.7812 4.625 12.7812C3.12348 12.7812 1.90625 13.9985 1.90625 15.5C1.90625 17.0015 3.12348 18.2188 4.625 18.2188Z" stroke="#B3BACA" stroke-width="2" stroke-linejoin="round"/>
<path d="M4.625 29.0938C6.12652 29.0938 7.34375 27.8765 7.34375 26.375C7.34375 24.8735 6.12652 23.6562 4.625 23.6562C3.12348 23.6562 1.90625 24.8735 1.90625 26.375C1.90625 27.8765 3.12348 29.0938 4.625 29.0938Z" stroke="#B3BACA" stroke-width="2" stroke-linejoin="round"/>
</svg>
