<svg width="29" height="29" viewBox="0 0 29 29" fill="none" xmlns="http://www.w3.org/2000/svg">
<path d="M28.468 2.62188C28.1341 2.36725 27.7017 2.28897 27.3019 2.41223L20.2119 4.58964V29L28.0603 26.5895C28.6183 26.4186 28.9997 25.8931 28.9997 25.2966V3.70428C28.9997 3.2778 28.8029 2.87651 28.468 2.62188Z" fill="#B3BACA"/>
<path d="M15.1785 2.54629L11.4243 0.239319V24.9808L17.5758 28.7598V4.02009L15.1811 2.54899C15.1802 2.54809 15.1793 2.54719 15.1785 2.54629Z" fill="#B3BACA"/>
<path d="M0 3.70339V25.2975C0 25.724 0.196847 26.1253 0.531661 26.3799C0.761902 26.5554 1.03872 26.6471 1.31817 26.6471C1.44471 26.6471 1.57214 26.6282 1.69692 26.5905L8.78779 24.4122V0L0.939415 2.41044C0.382269 2.5814 0 3.10685 0 3.70339Z" fill="#B3BACA"/>
</svg>
