<svg width="29" height="29" viewBox="0 0 29 29" fill="none" xmlns="http://www.w3.org/2000/svg">
<path d="M25.0917 27.2945L13.479 21.255C13.1762 21.0975 12.8071 21.119 12.5211 21.3093L3.6413 27.3489C3.30913 27.5755 3.16496 27.9867 3.28721 28.3656C3.40544 28.7406 3.76356 29 4.16551 29H24.6586C25.0813 29 25.4521 28.7174 25.5536 28.3112C25.6568 27.9068 25.4648 27.4883 25.0917 27.2945Z" fill="#B3BACA"/>
<path d="M28.9784 25.5727L26.2472 13.4958C26.1809 13.2001 25.9686 12.9594 25.6826 12.8489C25.3948 12.7385 25.0719 12.7764 24.821 12.9469L15.9383 18.9859C15.6725 19.1672 15.5231 19.4697 15.5433 19.7834C15.5618 20.1006 15.748 20.3833 16.0323 20.53L27.6433 26.569C27.78 26.6398 27.9276 26.676 28.0753 26.676C28.2725 26.676 28.4703 26.6143 28.6346 26.4891C28.9207 26.2756 29.0556 25.9188 28.9784 25.5727Z" fill="#B3BACA"/>
<path d="M22.5526 11.5111C22.4309 11.1321 22.0745 10.875 21.6703 10.875H13.2484C11.7167 13.5994 9.45032 16.2038 8.5184 17.2222C7.99419 17.7954 7.24334 18.125 6.45905 18.125C5.67476 18.125 4.92392 17.7954 4.39971 17.2222C4.03986 16.8291 3.48278 16.1998 2.84381 15.4204L0.610886 25.2917C0.529574 25.6559 0.682972 26.0315 0.996689 26.2399C1.15182 26.343 1.33232 26.394 1.51167 26.394C1.69621 26.394 1.87902 26.3413 2.03761 26.2325L22.1951 12.5244C22.529 12.3012 22.6708 11.89 22.5526 11.5111Z" fill="#B3BACA"/>
<path d="M6.45887 0C2.89727 0 0 2.84563 0 6.34375C0 9.59889 5.18209 15.3643 5.77262 16.0118C5.94793 16.2021 6.19706 16.3125 6.45887 16.3125C6.72069 16.3125 6.96982 16.2021 7.14513 16.0118C7.73566 15.3643 12.9177 9.59889 12.9177 6.34375C12.9177 2.84563 10.0205 0 6.45887 0ZM6.45887 9.06251C4.93066 9.06251 3.69079 7.84473 3.69079 6.34375C3.69079 4.84278 4.93066 3.625 6.45887 3.625C7.98709 3.625 9.22696 4.84278 9.22696 6.34375C9.22696 7.84473 7.98709 9.06251 6.45887 9.06251Z" fill="#B3BACA"/>
</svg>
