<svg width="28" height="28" viewBox="0 0 28 28" fill="none" xmlns="http://www.w3.org/2000/svg">
<g opacity="0.7">
<path d="M25.6117 19.6313C25.2145 19.4131 24.7159 19.5582 24.4978 19.9553C24.2797 20.3523 24.4247 20.8511 24.8218 21.0692C25.7989 21.606 26.3594 22.2011 26.3594 22.7019C26.3594 23.3145 25.4915 24.2639 23.0555 25.0914C20.649 25.9091 17.433 26.3594 14 26.3594C10.567 26.3594 7.35098 25.9091 4.94446 25.0914C2.50852 24.2639 1.64062 23.3145 1.64062 22.7019C1.64062 22.2011 2.20106 21.606 3.17822 21.0691C3.5753 20.851 3.72034 20.3523 3.50219 19.9552C3.28404 19.5582 2.78545 19.4131 2.38826 19.6312C1.29877 20.2298 0 21.2484 0 22.7019C0 23.8161 0.766281 25.4047 4.41667 26.6449C6.98873 27.5188 10.3922 28 14 28C17.6078 28 21.0113 27.5188 23.5833 26.6449C27.2337 25.4047 28 23.8161 28 22.7019C28 21.2484 26.7012 20.2298 25.6117 19.6313Z" fill="white"/>
<path d="M7.80659 23.9056C9.47183 24.376 11.6713 24.6351 13.9998 24.6351C16.3284 24.6351 18.5279 24.376 20.1931 23.9056C22.2304 23.3301 23.2634 22.497 23.2634 21.4296C23.2634 20.3621 22.2304 19.5291 20.1931 18.9537C19.7408 18.8259 19.249 18.7138 18.726 18.6183C18.4421 19.1089 18.1445 19.614 17.8334 20.1335C18.4122 20.2204 18.9556 20.3269 19.4491 20.4526C20.9484 20.8345 21.4962 21.2644 21.6088 21.4296C21.4961 21.595 20.9485 22.0248 19.4492 22.4067C18.0301 22.7681 16.2043 22.9743 14.2813 22.9927C14.1882 22.9996 14.0943 23.0035 13.9998 23.0035C13.9053 23.0035 13.8115 22.9996 13.7183 22.9927C11.7953 22.9743 9.96954 22.7682 8.55045 22.4067C7.05114 22.0248 6.50345 21.5949 6.39084 21.4296C6.50345 21.2644 7.0512 20.8345 8.55051 20.4526C9.04401 20.3269 9.58744 20.2204 10.1663 20.1335C9.85519 19.614 9.55763 19.1089 9.27364 18.6183C8.75072 18.7139 8.2588 18.8259 7.80659 18.9537C5.76932 19.5291 4.73633 20.3622 4.73633 21.4296C4.73633 22.497 5.76932 23.33 7.80659 23.9056Z" fill="white"/>
<path fill-rule="evenodd" clip-rule="evenodd" d="M15.7746 20.3674C15.3937 20.9907 14.7304 21.3628 14.0001 21.3628C13.2699 21.3628 12.6066 20.9907 12.2256 20.3674C9.55639 16.0002 6.37451 10.2446 6.37451 7.62557C6.37451 3.42081 9.79532 0 14.0001 0C18.2049 0 21.6258 3.42081 21.6258 7.62557C21.6258 10.2446 18.4439 16.0002 15.7746 20.3674ZM14.0001 4.03703C12.3101 4.03703 10.9351 5.41198 10.9351 7.10199C10.9351 8.79211 12.3101 10.167 14.0001 10.167C15.6902 10.167 17.0652 8.79206 17.0652 7.10199C17.0652 5.41198 15.6902 4.03703 14.0001 4.03703Z" fill="white"/>
</g>
</svg>
