<svg width="63" height="60" viewBox="0 0 63 60" fill="none" xmlns="http://www.w3.org/2000/svg">
<path d="M55.0767 32.3687V36.0392C55.0865 36.3524 55.341 36.6069 55.6542 36.6166H62.6427V40.6982H55.6542C55.3312 40.6982 55.0767 40.9527 55.0767 41.2757V44.9462C55.0865 45.2594 55.341 45.5139 55.6542 45.5237H62.6427V49.5856H55.6542C55.3312 49.5954 55.0767 49.8499 55.0767 50.1729V53.8434C55.0865 54.1566 55.341 54.4111 55.6542 54.4209H62.6427V59.9902H49.4682V17.7651L62.6427 28.6003V31.7912H55.6542C55.3312 31.7912 55.0767 32.0457 55.0767 32.3687ZM10.6101 26.907H0V31.801H4.47308C4.79609 31.7912 5.05057 32.0457 5.06036 32.3687V32.3785V36.0489C5.05057 36.3719 4.79609 36.6264 4.47308 36.6264H0V40.708H4.47308C4.79609 40.6982 5.05057 40.9527 5.06036 41.2757V41.2855V44.956C5.05057 45.279 4.79609 45.5334 4.47308 45.5334H0V49.5856H4.47308C4.79609 49.5856 5.06036 49.8499 5.06036 50.1729V53.8434C5.05057 54.1664 4.79609 54.4209 4.47308 54.4209H0V59.9902H10.6101V26.907ZM45.553 60H14.5253V1.95759C14.5253 0.880914 15.4062 0 16.4829 0H43.615C44.6917 0 45.5726 0.880914 45.5726 1.95759V60H45.553ZM27.23 42.783C27.23 42.1468 26.7113 41.6281 26.075 41.6281H26.0653H21.5334C20.8972 41.6183 20.3785 42.137 20.3687 42.7732V42.783V47.3442C20.3687 47.9902 20.8874 48.509 21.5334 48.509H26.0848C26.7308 48.509 27.2496 47.9902 27.2496 47.3442L27.23 42.783ZM27.23 31.4682C27.23 30.8222 26.7113 30.3034 26.0653 30.3034H21.5334C20.8874 30.3034 20.3687 30.8222 20.3687 31.4682V36.0196C20.3687 36.6656 20.8874 37.1843 21.5334 37.1843H26.0848C26.7308 37.1843 27.2496 36.6656 27.2496 36.0196L27.23 31.4682ZM27.23 20.1436C27.23 19.4976 26.7113 18.9788 26.0653 18.9788H21.5334C20.8874 18.9788 20.3687 19.4976 20.3687 20.1436V24.7047C20.3687 25.3507 20.8874 25.8695 21.5334 25.8695H26.0848C26.7308 25.8695 27.2496 25.3507 27.2496 24.7047L27.23 20.1436ZM27.23 8.81892C27.23 8.18271 26.7113 7.66395 26.075 7.66395H26.0653H21.5334C20.8972 7.65416 20.3785 8.17292 20.3687 8.80914V8.81892V13.3703C20.3589 14.0163 20.8777 14.5351 21.5237 14.5449H21.5334H26.0848C26.721 14.5351 27.2398 14.0065 27.23 13.3703V8.81892ZM39.739 42.783C39.7292 42.1468 39.2104 41.6281 38.5742 41.6281H34.0131C33.3768 41.6183 32.8581 42.137 32.8483 42.7732V42.783V47.3442C32.8483 47.9902 33.367 48.509 34.0131 48.509H38.5742C39.2202 48.509 39.739 47.9902 39.739 47.3442V42.783ZM39.739 31.4682C39.739 30.8222 39.2202 30.3034 38.5742 30.3034H34.0131C33.367 30.3034 32.8483 30.8222 32.8483 31.4682V36.0196C32.8483 36.6656 33.367 37.1843 34.0131 37.1843H38.5742C39.2202 37.1843 39.739 36.6656 39.739 36.0196V31.4682ZM39.739 20.1436C39.739 19.4976 39.2202 18.9788 38.5742 18.9788H34.0131C33.367 18.9788 32.8483 19.4976 32.8483 20.1436V24.7047C32.8483 25.3507 33.367 25.8695 34.0131 25.8695H38.5742C39.2104 25.8597 39.7292 25.3409 39.739 24.7047V20.1436ZM39.739 8.81892C39.7292 8.18271 39.2104 7.66395 38.5742 7.66395H34.0131C33.3768 7.65416 32.8581 8.17292 32.8483 8.80914V8.81892V13.3703C32.8483 14.0163 33.367 14.5351 34.0131 14.5351H38.5742C39.2202 14.5351 39.739 14.0163 39.739 13.3703V8.81892Z" fill="white"/>
</svg>
